<svg xmlns="http://www.w3.org/2000/svg" xmlns:xlink="http://www.w3.org/1999/xlink" version="1.1" x="0px" y="0px" viewBox="0 0 100 125" style="enable-background:new 0 0 100 100;" xml:space="preserve"><polygon points="49.9,22.7 24.5,37.4 75.4,37.4 "/><path d="M71.4,45.9v-4.1h4.1V39H24.6v2.7h4.5v4.1h1.2v19.7h-1.2V69h-4.5v2.7h50.8V69h-4v-3.2h-1.2V45.9H71.4z   M32.1,46.8h0.8v18.8h-0.8V46.8z M35.5,65.6h-0.8V46.8h0.8V65.6z M46.8,65.2h-1.2V69h-7.1v-3.3h-1.2V45.9h1.2v-4.1h7.1v4h1.2V65.2z   M48.6,45.8h0.8v19.4h-0.8V45.8z M52,65.2h-0.8V45.8H52V65.2z M63.1,65.8h-1.2V69h-6.8v-3.7h-1.2V45.8h1.2v-4h6.8v4.1h1.2V65.8z   M64.9,45.9h0.8v19.9h-0.8V45.9z M68.4,65.8h-0.9V45.9h0.9V65.8z"/><path d="M79.4,71.4l3.6,2l0.1-0.2c4.9-6.8,7.6-15,7.6-23.6c0.1-11-4.1-21.3-11.7-29C71.2,12.8,61,8.6,50,8.6  C27.5,8.6,9.2,26.9,9.2,49.4S27.5,90.2,50,90.2c3.9,0,7.7-0.5,11.2-1.6l0.2-0.1l-0.8-4l-0.3,0.1c-3.4,1-7,1.6-10.5,1.6  c-20.2,0-36.7-16.5-36.7-36.7c0-20.2,16.5-36.7,36.7-36.7s36.7,16.5,36.7,36.7c0,7.7-2.4,15.2-7.1,21.7L79.4,71.4z"/><path d="M84.5,15.4C75.3,6.2,63,1.1,50,1.1c-4.5,0-8.9,0.6-13,1.8l-0.2,0.1l0.7,3.7l0.3-0.1c4-1.1,8.1-1.7,12.3-1.7  c24.8,0,44.9,20.1,44.9,44.9S74.8,94.7,50,94.7c-24.8-0.1-44.9-20.3-44.9-45c0-9.3,2.9-18.3,8.3-26l0.2-0.2l-3.3-1.9l-0.1,0.2  c-5.8,8.2-8.9,17.8-8.9,28c0,26.8,21.8,48.6,48.6,48.6c26.9,0,48.7-21.8,48.7-48.6C98.7,36.8,93.7,24.6,84.5,15.4z"/><text x="0" y="115" fill="#000000" font-size="5px" font-weight="bold" font-family="'Helvetica Neue', Helvetica, Arial-Unicode, Arial, Sans-serif">Created by Aneeque Ahmed</text><text x="0" y="120" fill="#000000" font-size="5px" font-weight="bold" font-family="'Helvetica Neue', Helvetica, Arial-Unicode, Arial, Sans-serif">from the Noun Project</text></svg>